<svg width="20" height="17" viewBox="0 0 20 17" fill="none" xmlns="http://www.w3.org/2000/svg">
<path d="M16.59 10H1C0.734784 10 0.48043 9.89465 0.292893 9.70711C0.105357 9.51957 0 9.26522 0 9C0 8.73479 0.105357 8.48043 0.292893 8.2929C0.48043 8.10536 0.734784 8 1 8H16.59L11.29 2.7C11.186 2.6096 11.1018 2.49868 11.0427 2.3742C10.9836 2.24973 10.9509 2.11438 10.9466 1.97665C10.9422 1.83892 10.9664 1.70179 11.0176 1.57386C11.0688 1.44592 11.1459 1.32994 11.244 1.2332C11.3421 1.13646 11.4592 1.06104 11.5878 1.01168C11.7165 0.962313 11.8539 0.940069 11.9916 0.946341C12.1292 0.952614 12.2641 0.987267 12.3877 1.04813C12.5114 1.10899 12.6211 1.19474 12.71 1.3L19.71 8.3C19.8932 8.48693 19.9959 8.73825 19.9959 9C19.9959 9.26176 19.8932 9.51307 19.71 9.7L12.71 16.7C12.5199 16.8653 12.2744 16.9527 12.0226 16.9448C11.7708 16.9369 11.5312 16.8343 11.3519 16.6574C11.1725 16.4805 11.0664 16.2425 11.055 15.9908C11.0435 15.7392 11.1274 15.4925 11.29 15.3L16.59 10Z" fill="white"/>
</svg>
